<svg xmlns="http://www.w3.org/2000/svg" viewBox="0 0 638.67 292.8"><defs><style>.cls-1{font-size:279px;}.cls-1,.cls-2{fill:#fff;}.cls-1,.cls-2,.cls-6{font-family:ROGFonts-Regular, ROG Fonts;}.cls-2,.cls-6{font-size:91px;}.cls-3{letter-spacing:-0.02em;}.cls-4{letter-spacing:0em;}.cls-5{letter-spacing:0.01em;}.cls-6,.cls-7{fill:red;}</style></defs><title>Asset 1</title><g id="Layer_2" data-name="Layer 2"><g id="Layer_1-2" data-name="Layer 1"><text class="cls-1" transform="translate(0 237.15)">X</text><text class="cls-2" transform="translate(231 237.5)"><tspan class="cls-3">t</tspan><tspan class="cls-4" x="80.81" y="0">re</tspan><tspan class="cls-5" x="240.42" y="0">m</tspan><tspan x="327.05" y="0">e</tspan></text><text class="cls-6" transform="translate(370.28 159.5)">YTD</text><path class="cls-7" d="M361.65,103a13.27,13.27,0,0,0-9.58-9.12c-8.45-2.15-42.32-2.15-42.32-2.15s-33.88,0-42.33,2.15a13.27,13.27,0,0,0-9.58,9.12c-2.26,8.05-2.26,24.84-2.26,24.84s0,16.79,2.26,24.84a13.07,13.07,0,0,0,9.58,9c8.45,2.16,42.33,2.16,42.33,2.16s33.87,0,42.32-2.16a13.07,13.07,0,0,0,9.58-9c2.26-8,2.26-24.84,2.26-24.84S363.91,111,361.65,103Zm-63,40.08V112.59L327,127.83l-28.31,15.24Z"/></g></g></svg>